<?xml version="1.0" encoding="UTF-8" standalone="no"?>
<svg
   xmlns:dc="http://purl.org/dc/elements/1.1/"
   xmlns:cc="http://creativecommons.org/ns#"
   xmlns:rdf="http://www.w3.org/1999/02/22-rdf-syntax-ns#"
   xmlns:svg="http://www.w3.org/2000/svg"
   xmlns="http://www.w3.org/2000/svg"
   xmlns:sodipodi="http://sodipodi.sourceforge.net/DTD/sodipodi-0.dtd"
   xmlns:inkscape="http://www.inkscape.org/namespaces/inkscape"
   viewBox="0 0 640 640"
   height="640"
   width="640"
   version="1.1"
   id="svg3556"
   inkscape:version="0.91 r13725"
   sodipodi:docname="brain-logo-white.svg">
  <sodipodi:namedview
     pagecolor="#ffffff"
     bordercolor="#666666"
     borderopacity="1"
     objecttolerance="10"
     gridtolerance="10"
     guidetolerance="10"
     inkscape:pageopacity="0"
     inkscape:pageshadow="2"
     inkscape:window-width="661"
     inkscape:window-height="480"
     id="namedview6"
     showgrid="false"
     inkscape:zoom="0.36875"
     inkscape:cx="320"
     inkscape:cy="320"
     inkscape:window-x="0"
     inkscape:window-y="0"
     inkscape:window-maximized="0"
     inkscape:current-layer="svg3556" />
  <metadata
     id="metadata3562">
    <rdf:RDF>
      <cc:Work
         rdf:about="">
        <dc:format>image/svg+xml</dc:format>
        <dc:type
           rdf:resource="http://purl.org/dc/dcmitype/StillImage" />
        <dc:title />
      </cc:Work>
    </rdf:RDF>
  </metadata>
  <defs
     id="defs3560" />
  <path
     id="path3566"
     d="m 264.25734,605.42683 c -15.01825,-3.26739 -24.96015,-11.71514 -30.8634,-26.22501 l -2.2624,-5.56085 -9.388,0.17127 c -26.26238,0.47911 -44.2618,-10.34589 -85.45731,-51.39471 -21.54384,-21.46714 -24.86326,-26.51869 -24.90525,-37.90129 l -0.0254,-6.89633 -5.0667,-3.75287 c -11.913888,-8.82451 -20.100844,-21.73901 -23.109824,-36.45448 -1.3726,-6.71271 -1.45134,-9.2779 -0.48932,-15.94169 0.63057,-4.36794 2.04158,-9.75082 3.13557,-11.96198 l 1.98907,-4.02028 -5.37533,-5.12384 c -10.56963,-10.07513 -12.91504,-18.37424 -12.74744,-45.1061 0.13708,-21.86248 1.171,-26.32587 8.11994,-35.05338 l 3.86932,-4.85966 -2.51137,-8.46654 c -3.04801,-10.27567 -4.16705,-28.10515 -2.41989,-38.55578 2.1205,-12.68387 18.083126,-63.36242 24.855134,-78.91075 8.69456,-19.96244 19.43162,-33.63902 30.5008,-38.85112 4.91907,-2.31622 5.75172,-3.10064 5.76187,-5.42818 0.0931,-21.34807 33.59549,-61.564859 62.98813,-75.611986 8.21066,-3.92398 8.84889,-4.063049 18.7493,-4.085484 9.4583,-0.02143 10.24936,-0.172505 10.25,-1.957501 0.002,-5.951675 8.49969,-16.228832 17.00731,-20.569094 9.38057,-4.785611 27.86207,-6.367142 41.25066,-3.529974 8.0307,1.701782 18.98801,7.236632 25.26559,12.762379 l 4.52319,3.981478 7.59193,-7.211591 c 8.77654,-8.336852 16.32556,-12.299268 27.99921,-14.696546 13.90922,-2.85637 28.25763,0.602791 39.08663,9.42313 4.85513,3.95456 5.68866,4.274494 11.13633,4.274494 3.23862,0 7.79453,0.672524 10.12426,1.494498 10.94987,3.863339 24.14135,14.651846 31.49216,25.755501 2.09362,3.162497 4.41668,5.749997 5.16234,5.749997 0.74567,0 4.31902,1.40008 7.9408,3.11129 8.51156,4.02152 18.15398,13.03567 22.33463,20.879379 2.954,5.54227 3.77678,6.30279 9.74781,9.01018 8.35576,3.78868 19.31645,14.60024 25.34399,24.99915 2.39098,4.125 6.98422,11.90479 10.2072,17.28843 14.52489,24.26226 24.07135,53.08896 24.00595,72.48897 l -0.0346,10.27741 4.35996,3.64447 c 5.13839,4.29516 9.6186,12.25294 11.99226,21.30072 1.44553,5.51 1.60956,9.39385 1.07698,25.5 -0.34556,10.45 -1.07434,21.20656 -1.61953,23.90346 -0.89591,4.43181 -0.72688,5.44179 1.75721,10.5 2.69585,5.48939 2.74756,5.94117 2.70098,23.59654 -0.0497,18.85116 -1.63464,32.52863 -5.55133,47.9073 -2.00949,7.89015 -5.95876,16.56567 -8.50177,18.67618 -1.01497,0.84235 -0.98181,1.84866 0.16832,5.10848 5.15382,14.60749 -2.25893,35.53095 -18.35452,51.80804 -6.82084,6.89775 -7.5246,8.00246 -8.76409,13.75727 -3.70868,17.21903 -19.40496,36.06882 -36.94912,44.37248 -5.19669,2.4596 -6.37405,3.55807 -8.79382,8.20458 -3.71794,7.13928 -11.45428,15.67128 -19.26126,21.24223 -11.24089,8.02133 -23.74952,12.31177 -39.87141,13.67583 -2.34101,0.19807 -3.39816,1.14226 -5.28419,4.71956 -3.03374,5.75419 -5.52243,8.38701 -12.28932,13.00101 -17.64895,12.03393 -43.8632,18.72188 -63.18858,16.12109 -8.18026,-1.10089 -19.20106,-5.32672 -23.10437,-8.85917 -1.46394,-1.32484 -2.15811,-1.41382 -3.51559,-0.45063 -4.85558,3.44527 -14.20543,7.53443 -20.06946,8.7774 -8.21381,1.74103 -24.60904,1.71729 -32.7202,-0.0474 z m 34.78486,-23.70352 c 6.44098,-2.99257 8.02898,-5.3592 11.95098,-17.81075 2.1205,-6.73216 2.35641,-9.29163 2.30424,-25 -0.0561,-16.89308 -0.16772,-17.82961 -3.21815,-27.004 -3.96269,-11.91806 -7.53888,-17.59795 -14.00492,-22.24333 l -5.08066,-3.6501 -21.81449,-0.16246 -21.81448,-0.16247 -7.25652,10.85628 c -7.07996,10.59214 -7.24113,10.97231 -6.62395,15.62484 1.48849,11.22072 -7.76277,21.73009 -19.12871,21.73009 -7.33306,0 -16.42775,-6.20986 -18.56091,-12.6734 -1.60091,-4.85083 -0.66512,-11.6229 2.18927,-15.84311 2.29144,-3.3879 10.58817,-8.47234 13.82506,-8.47234 0.88566,0 5.21557,-5.46045 10.01063,-12.62443 l 8.4499,-12.62443 -0.27287,-7.32696 c -0.32048,-8.60562 1.561,-16.09779 8.82339,-35.13528 2.68973,-7.05083 5.03557,-14.61275 5.21298,-16.80429 l 0.32255,-3.98461 -36.5,0 -36.5,0 -2.91447,5.43876 c -2.50094,4.66705 -2.92661,6.59364 -3,13.57797 -0.0774,7.36221 -0.36083,8.50013 -2.96944,11.92008 -9.57199,12.54912 -30.56173,8.61993 -34.62833,-6.48228 -2.65386,-9.85568 4.04106,-19.63361 15.29629,-22.34023 2.27862,-0.54795 3.50247,-2.16222 6.74139,-8.8919 3.88429,-8.07061 3.9575,-8.42979 3.96595,-19.45662 0.008,-10.99411 0.071,-11.30403 2.92658,-14.5 2.50521,-2.80382 3.57773,-3.26578 7.58203,-3.26578 4.0043,0 5.07682,0.46196 7.58203,3.26578 2.66909,2.98723 2.91797,3.89947 2.91797,10.69541 l 0,7.42964 38.25,0.30459 38.25,0.30458 5,2.56365 c 7.47991,3.83516 10.01332,8.90857 9.95522,19.93635 -0.0469,8.8996 0.3748,7.41848 -11.65981,40.95424 -1.07651,2.99983 -2.03337,7.27483 -2.12635,9.5 l -0.16906,4.04576 15.6909,0.27509 15.69089,0.2751 8.65427,-6.19033 c 8.92979,-6.38742 12.09552,-10.11324 15.17505,-17.85986 1.58547,-3.98828 1.78318,-7.9683 1.73869,-35 l -0.0502,-30.5 -2.57051,-5 c -4.22595,-8.22009 -7.93433,-20.28681 -9.11902,-29.67246 l -1.11423,-8.82754 -23.04792,-0.0245 c -25.24265,-0.0268 -25.77511,-0.10145 -46.04792,-6.45847 -7.7,-2.41452 -15.0125,-4.67395 -16.25,-5.02095 -2.0909,-0.58629 -2.25,-0.31608 -2.25,3.82147 0,3.58884 0.46271,4.75556 2.3857,6.01555 5.05032,3.3091 8.03316,13.80477 5.68129,19.99066 -3.24754,8.54167 -13.87246,13.9678 -22.90502,11.69754 -14.50604,-3.64596 -19.87794,-19.71064 -10.02953,-29.9933 2.18323,-2.2795 2.40649,-3.50409 2.86756,-15.7291 0.48388,-12.82979 0.58876,-13.34586 3.25347,-16.00879 2.40005,-2.39846 3.6836,-2.79833 10,-3.11539 8.14984,-0.40909 11.95454,0.42984 35.70076,7.87197 l 15.80476,4.95331 23.58196,0 23.58196,0 1.08936,-4.25 c 1.23824,-4.83082 4.44661,-14.34089 9.02453,-26.75 2.85021,-7.7259 3.07664,-9.18303 2.48632,-16 -0.35721,-4.125 -1.50483,-11.55 -2.55027,-16.5 -5.22385,-24.73422 -5.55668,-27.87858 -3.69175,-34.87746 0.9454,-3.54795 1.7189,-8.91631 1.7189,-11.92971 0,-6.73757 -2.82669,-20.92675 -4.36829,-21.92752 -0.62244,-0.40408 -13.49542,-0.74158 -28.60661,-0.75 l -27.47491,-0.0153 -6.77509,6.72318 c -6.11263,6.06578 -6.77725,7.11693 -6.79706,10.75 -0.045,8.25453 -5.60199,15.61805 -13.87726,18.38872 -11.89334,3.98204 -25.10078,-5.23344 -25.10078,-17.51406 0,-9.02494 7.49555,-17.12618 16.7317,-18.08374 4.07093,-0.42206 5.53387,-1.23812 10.00292,-5.57988 l 5.23462,-5.08552 -8.48462,-8.67058 c -8.1012,-8.27876 -8.48462,-8.87366 -8.48462,-13.16449 0,-5.54592 2.6898,-9.30786 7.63059,-10.67208 5.17945,-1.43011 7.74837,-0.0494 17.36941,9.33562 12.83473,12.51985 11.0928,11.99028 40.79062,12.40074 17.72887,0.24504 25.6957,0.0134 26.6454,-0.77481 0.74512,-0.6184 1.64535,-2.6733 2.00051,-4.56645 0.35515,-1.89315 2.88313,-6.78728 5.61772,-10.87583 2.7346,-4.08856 5.69425,-9.38608 6.57701,-11.77228 3.63523,-9.8264 1.03079,-28.047109 -6.18063,-43.239939 -7.29385,-15.366467 -17.53204,-22.593994 -33.16818,-23.414682 -9.70929,-0.509607 -17.96251,0.989979 -21.72139,3.946718 -4.71382,3.707887 -3.70549,6.648917 8.68894,25.343324 10.01952,15.112339 11.25,17.445239 11.25,21.329179 0,3.662 -0.5234,4.82858 -3.26578,7.27889 -3.54292,3.1656 -8.15905,3.8206 -12.61557,1.79008 -1.46521,-0.6676 -6.37726,-6.98429 -12.03635,-15.47826 -6.56964,-9.860649 -10.2682,-14.511079 -11.8216,-14.864019 -14.71735,-3.34389 -17.62918,-3.30574 -25.2607,0.331 -8.4701,4.03635 -16.51182,10.397379 -27.54289,21.786519 -10.76474,11.11416 -14.71248,16.4684 -19.17763,26.01018 -2.48649,5.31352 -2.86506,6.93431 -1.92219,8.22956 0.64576,0.8871 4.31902,7.91291 8.1628,15.61291 7.76216,15.54945 8.91329,20.43123 9.19624,39 0.11515,7.55684 -0.43293,12.39683 -2.24335,19.81035 -2.06826,8.46938 -2.19598,9.93669 -0.93435,10.73468 0.82129,0.51948 16.7647,0.93105 36.40056,0.93966 l 34.93919,0.0153 9,9 c 6.59525,6.59525 9.68423,9.00587 11.56081,9.02196 3.93823,0.0338 10.35016,3.34476 13.32588,6.88121 7.24955,8.6156 4.69956,22.01326 -5.1458,27.03598 -8.26471,4.21634 -16.31679,3.46036 -22.68348,-2.12967 -4.81268,-4.22558 -6.43579,-7.74932 -6.43579,-13.97196 0,-4.83621 -0.34037,-5.60862 -4.20821,-9.54966 l -4.20821,-4.28785 -29.02546,0 -29.02546,0 -10.78344,10.75 c -10.55462,10.5219 -10.8803,10.75 -15.34836,10.75 -3.89235,0 -4.99483,-0.48116 -7.48289,-3.26578 -2.33247,-2.61049 -2.91797,-4.19365 -2.91797,-7.89007 0,-4.48877 0.27528,-4.90595 9.39278,-14.23423 8.28828,-8.4799 9.28888,-9.88179 8.50928,-11.92194 -1.5337,-4.01355 -2.77379,-14.04814 -4.34859,-35.18798 -1.44864,-19.44649 -1.6919,-20.84689 -4.73349,-27.25 -1.95323,-4.11191 -3.81481,-6.74142 -4.76317,-6.72804 -3.83508,0.0541 -10.11452,4.10988 -14.02739,9.06004 -7.22516,9.14051 -15.99307,29.9475 -23.98482,56.918 -1.54825,5.225 -4.49724,14.9 -6.55331,21.5 -2.828528,9.07958 -3.860838,14.33885 -4.241768,21.61036 -0.53194,10.15398 0.8818,21.30911 3.291048,25.9681 l 1.42623,2.75802 13.906,-4.60967 c 12.91191,-4.28013 14.19195,-4.52399 17.90622,-3.41116 6.37014,1.90854 7.61611,4.72766 8.04866,18.21084 0.54828,17.09065 -1.76853,23.12138 -9.43498,24.55962 -7.31321,1.37196 -13.3927,-4.52347 -13.3927,-12.98724 0,-4.18133 -0.21307,-4.23005 -7.21249,-1.64936 -2.90813,1.07224 -7.3815,2.4647 -9.94083,3.09438 -2.795648,0.68781 -5.789748,2.33147 -7.499998,4.11725 l -2.846676,2.97239 0,19.68324 c 0,23.95567 0.32024,24.91574 10.587694,31.74153 12.73238,8.46447 13.68611,12.21471 6.18359,24.31506 -4.54957,7.33773 -4.72792,7.91075 -4.70821,15.12664 0.0352,12.8978 5.55196,21.92817 18.77379,30.73096 l 7.16313,4.76904 16,-0.004 c 17.99188,-0.005 24.06343,-1.31654 30.79389,-6.65258 4.92229,-3.9025 8.43247,-4.86325 12.64974,-3.46228 6.85852,2.27839 9.63425,10.66294 5.41697,16.36283 -3.04333,4.11323 -11.71047,9.83629 -18.68684,12.33924 -5.1587,1.85082 -9.13137,2.31382 -24.16244,2.81606 -16.18002,0.54063 -18.02292,0.78007 -18.32918,2.38147 -0.23159,1.21091 5.36251,7.46043 17.48868,19.5377 40.80438,40.63985 55.26359,48.52941 80.21812,43.77041 7.2632,-1.38514 7.52698,-1.54438 15.5,-9.35739 10.05834,-9.85681 12.10932,-11.23146 16.75684,-11.23146 7.31362,0 12.48679,7.57582 9.87108,14.45566 -0.61371,1.61417 -5.64842,7.5409 -11.18826,13.17051 -9.89812,10.05852 -10.05364,10.28953 -8.98711,13.34897 2.32732,6.67617 6.6791,10.71708 14.15204,13.14112 1.37856,0.44718 7.68147,0.70584 14.00647,0.57482 10.03367,-0.20784 12.22509,-0.57511 17.18666,-2.88033 z m 74.31334,-0.35954 c 4.95,-1.43314 11.7,-4.11497 15,-5.95964 10.71078,-5.9872 10.3907,-4.29394 3.47434,-18.37969 -7.11694,-14.49427 -7.72242,-16.76456 -5.57735,-20.91268 2.11403,-4.08809 5.31218,-6.1992 9.39126,-6.1992 6.34125,0 8.17195,1.70049 13.72631,12.75 l 3.64443,7.25 8.739,0 c 20.47287,0 35.07645,-9.0535 44.1544,-27.37356 l 4.15911,-8.39345 7.14425,-2.77717 c 3.92934,-1.52744 9.47665,-4.25502 12.32735,-6.06128 8.40763,-5.32723 17.27475,-18.02237 18.6103,-26.64454 l 0.58086,-3.75 -43.00452,0 -43.00452,0 0.64146,2.25 c 3.36699,11.8102 4.74921,14.21925 9.89738,17.25 8.37478,4.93027 11.58711,13.79869 8.0578,22.24552 -2.01202,4.81545 -4.09153,7.02311 -8.95205,9.50375 -7.3462,3.74924 -18.43951,1.91165 -23.72167,-3.92946 -2.36561,-2.61593 -4.78715,-8.69756 -4.79309,-12.03769 -0.003,-1.53017 0.73451,-4.84545 1.63828,-7.3673 l 1.64322,-4.58517 -4.44648,-13.41483 -4.44649,-13.41482 -10.94179,-5.75249 c -9.68386,-5.09114 -11.2751,-5.63723 -13.84101,-4.75 -9.97419,3.44885 -21.62001,-2.65425 -24.70353,-12.94611 -3.97307,-13.26094 10.32619,-26.29711 24.26444,-22.1211 5.22376,1.56507 11.54217,7.3832 12.95532,11.92952 1.04598,3.3651 1.97224,4.03913 12.25724,8.91951 l 11.12575,5.27933 26.75,-0.0293 c 14.7125,-0.0161 26.75,-0.25875 26.75,-0.53914 0,-0.2804 -2.58638,-4.39627 -5.74751,-9.14637 l -5.74752,-8.63656 -0.36453,-11.48335 c -0.34832,-10.97273 -0.50332,-11.68026 -3.48582,-15.91156 -6.35694,-9.01867 -3.2305,-21.4347 6.59512,-26.1912 7.86535,-3.80755 18.87087,-2.18415 23.87967,3.52244 6.87411,7.83177 6.31222,19.44123 -1.24887,25.80347 -2.73407,2.30054 -2.88054,2.83247 -2.88054,10.46096 l 0,8.03718 8.10402,12.02738 8.10402,12.02739 18.29174,0 18.29173,0 3.11564,-4.85531 c 4.39288,-6.8457 6.43478,-13.41876 5.83141,-18.77181 -0.32415,-2.87588 -3.57451,-10.61688 -9.12109,-21.72264 -9.83681,-19.69598 -10.42867,-22.5916 -5.6995,-27.88446 2.47668,-2.77189 3.59873,-3.26578 7.41944,-3.26578 5.33896,0 8.76228,2.66924 11.87951,9.26275 1.10843,2.34451 2.36816,4.48082 2.79941,4.74734 1.01569,0.62773 3.74953,-11.70796 4.99418,-22.53487 0.53587,-4.66137 0.97773,-13.87712 0.9819,-20.47944 l 0.008,-12.00421 -5.00577,-6.11234 -5.00577,-6.11234 2.61962,-5.722 c 4.87838,-10.65579 5.89044,-43.10814 1.64377,-52.70845 -3.26311,-7.3768 -4.39096,-7.21192 -19.46896,2.84628 -11.35295,7.5733 -13.80717,8.81728 -17.39535,8.81728 -4.78745,0 -7.92407,-2.253 -10.01562,-7.1941 -2.73464,-6.46037 -0.14253,-9.85799 15.26652,-20.01062 12.98037,-8.55244 13.40695,-8.94714 15.44999,-14.29528 2.50164,-6.54861 2.185,-11.39306 -1.56314,-23.91551 -5.38381,-17.98582 -15.66913,-41.08449 -18.29441,-41.08449 -0.409,0 -2.99085,5.01716 -5.73746,11.14925 -4.66472,10.41449 -5.4222,11.49202 -11.49383,16.35049 -7.85255,6.28353 -31.09444,24.04274 -39.78694,30.40134 l -6.28694,4.59892 2.40858,2 c 4.01877,3.33704 4.6653,5.79648 4.6653,17.74717 0,11.32252 0.0147,11.39274 2.98225,14.23582 9.17382,8.78908 6.98919,23.96378 -4.23199,29.39586 -12.65045,6.12398 -27.23036,-1.4127 -28.51073,-14.73783 -0.50135,-5.21764 1.16562,-9.6671 5.29787,-14.14102 2.1045,-2.27851 2.33803,-3.58544 2.63584,-14.75136 0.17972,-6.73825 0.0211,-12.25075 -0.35237,-12.25 -0.37352,7.5e-4 -7.43418,3.37636 -15.69037,7.50136 -8.25619,4.125 -16.09556,7.5 -17.42083,7.5 -3.01873,0 -8.79243,-4.17059 -14.96341,-10.80872 -5.91589,-6.36372 -7.1798,-9.06677 -6.3379,-13.55447 0.92892,-4.95156 5.56022,-8.63681 10.85401,-8.63681 3.34306,0 5.00173,0.75283 8.899,4.03906 l 4.79009,4.03906 18.77427,-9.51165 c 19.01027,-9.63122 18.79636,-9.48684 51.29171,-34.62012 3.5846,-2.77247 7.04198,-5.36504 7.68307,-5.76125 1.49962,-0.92682 16.29949,-31.89598 16.29949,-34.10717 0,-1.88197 -6.19184,-8.1613 -10,-10.1413 -1.375,-0.71491 -5.65,-2.26274 -9.5,-3.43962 l -7,-2.13977 -2.25744,-7.00732 c -3.89664,-12.09552 -11.6618,-18.75785 -24.898,-21.36191 l -6.08879,-1.197899 -3.25182,-6.9308 c -1.7885,-3.81194 -5.10855,-8.84092 -7.37789,-11.17551 -5.17081,-5.319497 -13.3227,-10.989317 -14.63446,-10.178597 -0.54749,0.33836 -0.9916,5.04956 -0.9916,10.519017 0,9.6544 -0.0789,9.99604 -3.10359,13.44099 -2.62183,2.98609 -3.7515,3.53479 -7.2775,3.53479 -8.8343,0 -11.61891,-4.68223 -11.61891,-19.53686 0,-10.271237 -0.10508,-10.782497 -3.06251,-14.90065 -4.74564,-6.60819 -9.89856,-9.06748 -18.93749,-9.038146 -6.06877,0.0197 -8.55045,0.536186 -13.00461,2.706532 -6.46671,3.15099 -12.31398,8.823949 -15.91613,15.441667 l -2.57926,4.738507 3.36357,10.04448 c 2.89945,8.65848 3.45139,11.903399 4,23.516359 l 0.63643,13.47189 13.92833,9.27811 13.92834,9.27811 17.24494,0 c 16.96688,0 17.29317,-0.0406 20.23634,-2.5171 2.77407,-2.33422 2.91875,-2.78019 1.99144,-6.13863 -3.13824,-11.36576 5.97518,-22.34427 18.54831,-22.34427 11.09797,0 18.72834,6.64128 19.35693,16.84777 0.27774,4.50988 -0.11808,6.45468 -1.95849,9.62266 -2.45741,4.23003 -7.51589,8.19879 -11.71674,9.19267 -1.40767,0.33304 -6.21692,4.14509 -10.68721,8.47121 l -8.12782,7.86569 -26.64859,0 -26.6486,0 -13.64836,-9.13465 c -15.14725,-10.13783 -15.16965,-10.14121 -19.01432,-2.87084 -2.95538,5.58872 -2.9153,10.51816 0.20757,25.52775 2.90132,13.94474 3.28432,27.50036 0.99481,35.20996 -1.46486,4.93272 -1.39655,5.64816 2.14189,22.43151 2.86424,13.58552 3.6784,19.76928 3.76312,28.58183 l 0.10811,11.24556 15.27144,0.004 c 14.84829,0.004 15.38236,-0.069 19.27458,-2.64471 10.99652,-7.27716 26.63276,-1.68493 29.97298,10.7197 4.72713,17.55525 -18.04108,29.9387 -31.94688,17.37564 l -3.81452,-3.44575 -18.58646,0 -18.58645,0 -2.13478,7.16821 c -3.17278,10.65358 -4.26582,19.32946 -3.63242,28.83179 0.60235,9.03642 2.22147,14.5986 8.17725,28.09135 2.73003,6.18485 3.69679,9.73098 3.65551,13.40865 -0.0309,2.75 0.18346,6.2375 0.47627,7.75 l 0.53239,2.75 22.97021,0 c 25.89819,0 26.94866,-0.23515 30.67587,-6.86682 1.8233,-3.24412 2.57251,-7.07983 3.71767,-19.03333 0.78881,-8.23373 1.55641,-15.55486 1.70577,-16.26915 0.18276,-0.87403 -1.36351,-1.47988 -4.72843,-1.85268 -6.2368,-0.69097 -9.05647,-2.21964 -10.98965,-5.958 -1.91096,-3.6954 -1.90923,-6.34799 0.007,-10.05275 3.00638,-5.8137 4.06931,-5.96727 41.3019,-5.96727 l 33.91816,0 0.46751,-7.2849 c 0.51075,-7.9586 2.26241,-11.69555 6.35658,-13.56097 5.16992,-2.35558 10.50345,-0.95657 13.91302,3.64945 1.55828,2.1051 2.05536,4.68986 2.35986,12.27117 l 0.38577,9.60434 6.48744,3.1991 c 5.83382,2.87679 7.07042,3.13315 12.27367,2.54447 9.75506,-1.10366 17.44997,2.9135 21.1395,11.03597 2.32543,5.11943 2.32257,8.98654 -0.0104,14.04137 -6.07727,13.16767 -23.00732,15.35349 -32.77277,4.23126 -1.73011,-1.97049 -3.42915,-4.87348 -3.77566,-6.4511 -0.5264,-2.39669 -2.02464,-3.56007 -9.11046,-7.07428 l -8.48086,-4.20588 -21.23531,0.0153 c -11.67941,0.008 -21.76965,0.35508 -22.42274,0.77035 -2.19605,1.39637 -3.36078,6.41452 -4.89823,21.10365 -1.8422,17.60077 -2.72854,21.83618 -5.84599,27.93528 -3.06737,6.00113 -7.77752,10.47887 -14.06834,13.37419 -4.75632,2.18907 -6.29854,2.31628 -31.64455,2.61013 l -26.64456,0.30891 -0.68439,11.19109 c -1.45063,23.72033 -5.95303,37.01173 -16.07896,47.46617 -2.99615,3.09335 -5.44754,5.71949 -5.44754,5.83587 0,0.11638 2.48425,2.75612 5.52055,5.86609 5.29929,5.42787 10.84939,14.84684 13.41888,22.77296 0.66862,2.0625 1.64076,3.75 2.16032,3.75 0.51955,0 4.52467,-1.8 8.90025,-4 10.19358,-5.12523 13.95348,-5.24652 18.6,-0.6 2.42736,2.42736 3.4,4.30103 3.4,6.54966 0,6.27004 -2.20344,8.48546 -14.85467,14.93544 l -11.89642,6.06516 -0.47639,14.77487 c -0.33902,10.51444 -1.12408,17.4603 -2.72254,24.08775 -2.18645,9.06539 -2.19709,9.36708 -0.40042,11.35238 2.16259,2.38963 6.62188,4.8423 10.85044,5.96788 5.35295,1.42487 20.48889,0.0718 30,-2.68193 z"
     style="fill:#ffffff"
     inkscape:connector-curvature="0" />
</svg>
